<?xml version="1.0" standalone="no"?>
<!DOCTYPE svg PUBLIC "-//W3C//DTD SVG 20010904//EN"
 "http://www.w3.org/TR/2001/REC-SVG-20010904/DTD/svg10.dtd">
<svg version="1.0" xmlns="http://www.w3.org/2000/svg"
 width="225.000000pt" height="225.000000pt" viewBox="0 0 225.000000 225.000000"
 preserveAspectRatio="xMidYMid meet">

<g transform="translate(0.000000,225.000000) scale(0.100000,-0.100000)"
fill="#000000" stroke="none">
<path d="M975 2143 c-226 -32 -489 -179 -632 -353 -52 -64 -133 -185 -133
-199 0 -8 330 -264 334 -260 2 2 17 34 35 70 82 168 245 295 427 334 162 34
328 -2 467 -101 l50 -36 143 143 144 143 -23 24 c-40 44 -199 141 -281 173
-125 48 -242 69 -381 67 -66 0 -133 -3 -150 -5z"/>
<path d="M1130 1115 l0 -195 276 0 276 0 -7 -37 c-13 -73 -57 -147 -130 -220
-39 -40 -69 -71 -65 -70 6 2 140 -99 317 -235 8 -7 25 4 53 34 100 105 184
262 227 423 24 90 26 118 27 280 1 99 -2 188 -6 198 -7 16 -40 17 -488 17
l-480 0 0 -195z"/>
<path d="M1018 103 c7 -3 16 -2 19 1 4 3 -2 6 -13 5 -11 0 -14 -3 -6 -6z"/>
<path d="M1218 103 c6 -2 18 -2 25 0 6 3 1 5 -13 5 -14 0 -19 -2 -12 -5z"/>
</g>
</svg>
